<?xml version="1.0" encoding="UTF-8" standalone="no"?>
<svg xmlns:dc="http://purl.org/dc/elements/1.1/" xmlns:cc="http://creativecommons.org/ns#" xmlns:rdf="http://www.w3.org/1999/02/22-rdf-syntax-ns#" xmlns:svg="http://www.w3.org/2000/svg" xmlns="http://www.w3.org/2000/svg" xmlns:xlink="http://www.w3.org/1999/xlink" xmlns:sodipodi="http://sodipodi.sourceforge.net/DTD/sodipodi-0.dtd" xmlns:inkscape="http://www.inkscape.org/namespaces/inkscape" width="788.16443" height="800" id="svg2" version="1.1" inkscape:version="0.91 r13725" sodipodi:docname="CedarTree.svg"><script xmlns=""/>
  <metadata id="metadata14">
    <rdf:RDF>
      <cc:Work rdf:about="">
        <dc:format>image/svg+xml</dc:format>
        <dc:type rdf:resource="http://purl.org/dc/dcmitype/StillImage"/>
        <dc:title/>
      </cc:Work>
    </rdf:RDF>
  </metadata>
  <defs id="defs12">
    <linearGradient id="linearGradient4142">
      <stop style="stop-color:#189600;stop-opacity:1;" offset="0" id="stop4144"/>
      <stop id="stop4150" offset="0.84857661" style="stop-color:#189600;stop-opacity:1;"/>
      <stop style="stop-color:#986500;stop-opacity:1;" offset="1" id="stop4146"/>
    </linearGradient>
    <linearGradient inkscape:collect="always" xlink:href="#linearGradient4142" id="linearGradient4148" x1="372.1424" y1="123.65221" x2="367.66437" y2="348.36459" gradientUnits="userSpaceOnUse" gradientTransform="matrix(3.203238,0,0,3.203238,-812.2474,-400.40475)"/>
  </defs>
  <sodipodi:namedview pagecolor="#ffffff" bordercolor="#666666" borderopacity="1" objecttolerance="10" gridtolerance="10" guidetolerance="10" inkscape:pageopacity="0" inkscape:pageshadow="2" inkscape:window-width="1600" inkscape:window-height="837" id="namedview10" showgrid="false" fit-margin-top="0" fit-margin-left="0" fit-margin-right="0" fit-margin-bottom="0" inkscape:zoom="0.8375" inkscape:cx="394.08221" inkscape:cy="400" inkscape:window-x="-8" inkscape:window-y="-8" inkscape:window-maximized="1" inkscape:current-layer="svg2"/>
  <path d="m 378.04187,0 c -17.18938,36.19563 -49.56063,61.49541 -80.50083,85.43539 -5.09017,4.44548 -17.74552,13.0554 -8.56462,19.60746 7.86583,-8.7908 29.45354,2.8505 16.90701,12.30284 -11.23908,10.51988 -26.71373,14.37145 -39.19233,23.05172 -11.05181,6.00434 -22.2609,12.27445 -31.02496,21.46557 -0.59698,14.35835 17.8152,6.41013 25.28688,12.39188 9.72986,10.40236 -4.12565,27.93778 -16.89484,23.92713 -16.32726,0.50032 -27.60371,14.8663 -33.77792,28.57228 -12.7717,19.74956 -36.97309,25.59784 -56.2404,36.83695 -11.02475,6.42662 -21.72113,13.53707 -31.98411,21.03595 -13.23184,9.04703 -1.72033,26.95928 12.35867,22.56245 15.19776,-1.51519 28.87123,-13.45603 44.60534,-10.01511 14.2694,5.01361 18.27422,23.66219 13.4111,36.68242 -3.60057,10.42459 -12.32895,17.76743 -19.32222,25.91064 -11.35247,11.50097 -26.199,18.96753 -41.8538,22.52786 -15.13005,5.07986 -28.7283,14.34871 -38.652515,26.86146 -11.51869,11.59559 -22.99131,23.37905 -36.23026,33.048 -4.18198,10.67104 7.62009,19.7608 17.45989,19.47751 20.73238,-1.30554 35.101315,-18.27399 52.758555,-26.99366 14.65267,-6.5855 31.89714,9.20723 28.31271,24.47239 -1.13388,14.85098 -15.03862,22.38689 -27.40149,26.95637 -36.343615,18.27044 -67.899195,44.76422 -95.917725,73.99669 -5.79488,11.82039 -21.7259598,8.34065 -30.3042698,16.58072 -5.58846,10.42783 8.4366,15.92606 16.8036498,14.85419 35.95647,-4.32466 69.50805,-19.52252 101.292915,-36.24378 11.82018,-5.6514 22.91952,-13.08881 35.20839,-17.59272 11.5431,-2.85165 27.63905,2.16622 29.7043,15.30359 -0.0163,13.8683 -13.75553,21.54972 -24.63652,26.96758 -33.55452,17.62909 -70.378915,27.37465 -106.242945,39.02938 -13.42622,-3.75365 -23.54095,20.13344 -8.81227,24.42847 15.57449,5.34066 32.13168,1.05879 48.06298,0.35879 49.261415,-7.54712 92.344715,-34.20331 138.392185,-51.43426 19.14355,-6.24013 41.74021,2.46809 51.18781,20.4061 9.49171,15.98912 8.62417,37.01527 -1.38848,52.54966 -15.82351,33.85352 -39.87986,64.96714 -72.17436,84.43213 -20.27131,10.03587 -43.93318,13.87537 -61.30655,29.2405 -16.06779,5.29649 8.05515,27.00855 11.54213,9.77616 9.65524,-13.16867 26.68439,-17.10462 42.1313,-17.64866 23.21457,-2.52713 47.86781,-6.80925 65.90578,-22.88018 16.17126,-12.55753 32.10708,-29.88128 54.06579,-30.15163 12.13557,1.43912 24.13832,11.19044 36.46397,5.24033 10.78213,-4.93519 27.69935,-2.04325 30.51574,11.21576 5.14879,15.51046 21.13583,22.56761 33.81392,30.8679 4.58902,6.44415 19.83769,23.06418 23.35414,8.41123 -2.83749,-10.45098 1.21681,-26.44305 14.92635,-22.95072 11.97498,0.53468 23.38668,4.95018 35.33854,5.6744 15.9165,3.29681 29.19312,14.19317 38.23087,27.34999 6.21735,8.58599 19.83643,23.33853 29.95511,11.95339 6.27921,-11.77462 -5.70689,-21.59456 -15.46447,-25.79907 -14.22887,-8.81762 -26.39416,-20.56024 -38.83509,-31.67868 -18.33607,-17.12489 -34.17346,-38.90637 -37.08395,-64.48925 -3.94559,-25.50825 -1.86922,-51.52536 1.45975,-76.96429 4.1897,-16.37797 25.13289,-25.31923 39.77716,-16.61728 20.60573,9.40195 41.06929,22.85507 64.69269,21.39635 34.13601,0.73552 69.21378,-5.80052 102.57435,4.09156 32.46315,10.22589 55.67291,37.62155 87.29555,49.47593 7.079,4.30214 16.1353,0.20786 18.7293,-7.35313 3.134,-6.79426 0.9227,-15.48727 -5.6238,-19.35931 -36.64887,-36.99375 -86.73572,-54.96532 -129.13996,-83.87272 -13.35001,-3.39024 -15.78066,-24.86856 -3.43964,-31.06952 16.22617,-11.79176 39.1832,-6.30259 53.57845,5.8551 12.15664,7.12099 25.85247,12.45595 40.11521,12.46867 14.60964,-4.57345 7.52674,-25.71415 -5.55429,-27.30385 -23.70146,-13.38259 -40.67645,-35.34325 -61.21106,-52.74648 -11.82229,-10.01002 -24.76205,-20.14493 -40.65107,-22.08779 -8.68459,-1.58147 -17.569,-1.92755 -26.36829,-1.33697 -8.25263,-8.96849 2.7461,-22.70097 13.41667,-21.5781 10.94991,0.73758 21.83724,1.55149 32.7729,0.0277 12.2209,-0.89534 24.43126,-2.16039 36.69565,-2.24432 9.8998,6.74189 29.68262,-4.90425 20.74776,-16.52807 -9.76027,-8.55258 -23.87428,-7.80968 -35.538,-12.19876 -20.48996,-6.72238 -41.34224,-12.15549 -62.45536,-16.41663 -14.77106,-0.88076 -12.94922,-20.3207 0.0334,-22.46478 8.49633,-3.16945 15.88108,3.35817 24.03694,4.37014 13.92905,2.9932 28.30993,2.95476 42.23206,5.98938 11.80413,-5.82713 2.67913,-23.07289 -7.99903,-24.07778 -25.195,-9.00926 -46.96872,-25.26983 -68.25475,-41.08767 -23.50126,-17.67438 -44.82272,-38.11386 -68.61214,-55.37982 -8.63173,-5.34906 -22.7796,-6.88962 -25.05031,-18.74391 -0.80081,-10.90533 12.03565,-15.87195 21.13486,-13.32236 12.9104,3.81262 24.94051,10.45175 38.09867,13.71133 10.3234,1.75441 20.96754,4.80912 30.91788,3.50822 12.63091,-7.93619 -5.41735,-13.00858 -11.9499,-15.76211 -16.84077,-9.08262 -31.80431,-21.18382 -46.95995,-32.72358 -12.80747,-10.93223 10.86304,-15.76204 19.00545,-11.55273 13.61344,5.6952 15.16477,-14.14194 4.98872,-19.13371 -11.9901,-5.09827 -22.30116,-13.56168 -33.17321,-20.94248 C 512.90984,97.92808 490.66088,86.85868 466.51231,83.78389 439.43813,81.06338 414.16737,65.4943 399.80424,42.34098 390.89738,29.14652 384.36079,14.555 378.04186,0 Z m -88.91324,151.89021 c 13.95436,0.41399 11.80912,25.56254 -1.92921,23.88469 -13.34155,-0.8586 -12.52501,-26.58637 1.92921,-23.88469 z m 131.62182,13.54306 c 13.5783,-2.42888 16.45359,22.34932 2.88756,23.51257 -14.13455,2.53011 -19.37315,-25.08052 -2.88756,-23.51257 z m -38.55107,3.22951 c 13.76544,2.70802 11.31672,26.68848 -2.57549,26.89804 -10.16407,2.26321 -21.11905,9.20021 -31.40199,4.00116 -8.36224,-8.84414 3.72418,-21.92209 13.05858,-24.79706 7.15972,-1.44319 13.74689,-4.694 20.9189,-6.10214 z m 88.72431,0.1042 c 13.26541,4.8392 8.5868,28.25708 -5.40556,27.95857 -13.23212,1.77305 -19.3941,-20.30062 -7.05513,-25.53599 3.99444,-1.41628 8.17925,-2.60974 12.46069,-2.42258 z m -149.66914,26.56513 c 9.75447,9.28285 3.99312,27.19712 -8.03433,31.48004 -8.66947,4.82251 -20.48884,16.22972 -29.93167,6.84385 -5.12354,-11.46484 7.73682,-20.09785 15.30123,-26.4615 6.75105,-5.24928 14.20114,-10.01429 22.66477,-11.86239 z m 111.40141,51.77608 c 13.96573,6.59434 6.87636,31.76279 -8.45152,30.19833 -12.58876,-3.18988 -10.94518,-24.78105 1.73503,-26.5033 2.39692,-0.91738 4.59546,-2.2678 6.71649,-3.69503 z m -44.31494,2.50016 c 13.06155,6.1152 3.08866,27.91231 -10.06724,24.7714 -13.6405,-1.6019 -13.38902,-25.58349 1.654,-23.41852 2.83454,-0.14059 5.76176,-0.21269 8.41324,-1.35288 z m 95.52744,12.5013 c 14.31598,-4.44237 31.55132,10.30658 26.90508,25.26305 -6.37665,11.59495 -22.1557,13.06296 -33.45753,8.72956 -12.97753,-0.64065 -21.70652,-20.15036 -10.1452,-28.41167 4.7841,-3.61335 10.81471,-5.09827 16.69765,-5.58094 z m -211.46425,3.75029 c 11.83695,-6.43988 24.40495,12.91559 14.33823,21.45292 -6.66805,9.80322 -23.7906,13.80833 -31.34048,2.90655 -6.27232,-10.64775 3.8691,-28.53662 17.00225,-24.35947 z m -54.61409,9.16767 c 13.42746,1.83702 22.17672,14.03306 27.13915,25.64595 1.21137,14.15226 -19.67077,21.91758 -28.78036,11.62071 -10.24347,-6.42627 -19.21007,-19.64222 -13.83991,-31.90803 3.30869,-4.87062 9.90025,-6.88014 15.48112,-5.35863 z m 326.73975,51.15097 c 14.57259,-3.84033 25.1525,19.44884 12.63957,27.87381 -11.44104,10.39194 -33.6866,-3.37558 -27.71999,-18.20292 2.96536,-5.49698 8.89721,-9.1504 15.08042,-9.67089 z m -185.48009,26.56519 c 12.2191,1.55613 8.26028,22.73383 -3.03811,22.023 -12.12605,-2.24768 -9.34978,-23.21739 3.03811,-22.023 z m -61.98416,11.25105 c 9.96636,-7.0517 22.82018,10.15968 14.53004,18.17998 -9.93641,6.99792 -22.82508,-9.94045 -14.53004,-18.17998 z m 98.55107,2.08355 c 11.55206,7.01922 18.41029,20.10704 19.84624,33.3138 -5.53622,12.33852 -26.91681,9.36419 -29.32728,-3.77527 -4.2275,-10.39153 -0.33141,-23.76076 9.48104,-29.53853 z m 34.39365,20.41875 c 14.88679,-3.73952 9.54456,27.37676 -2.88532,16.58377 -4.13067,-4.90515 -1.91839,-12.97635 2.88532,-16.58377 z m -215.99969,21.66885 c 9.85758,-2.88731 24.2267,0.14754 26.94769,11.46093 1.14939,10.63244 -10.54282,16.16389 -19.1102,18.79887 -13.73173,4.23708 -27.16169,11.19333 -41.92836,10.25885 -11.06822,-6.32614 -15.04113,-19.27183 -18.98736,-30.56267 10.68194,-10.01518 26.41118,-7.07723 39.65257,-9.58399 4.47156,-0.22922 8.94859,-0.33826 13.42566,-0.37199 z m 335.05459,48.75488 c 12.57454,-6.16495 26.0971,13.79433 15.57155,23.11713 -13.16796,15.15605 -38.52015,17.9724 -54.26516,5.23992 -1.89282,-13.41276 11.50511,-23.15432 23.40616,-25.07931 5.00628,-1.41422 9.98183,-3.52708 15.28745,-3.27774 z m 70.67705,15.31401 c 14.28711,-2.45887 25.5414,17.92304 15.33803,28.47159 -9.65619,14.56003 -32.6836,18.37871 -45.84987,6.4437 -5.13328,-12.07098 5.27987,-24.64853 16.36265,-28.52134 4.76354,-2.0273 9.27379,-4.62564 14.14919,-6.39395 z m -355.3695,21.66888 c 13.23127,-1.30571 25.3527,11.82203 23.61623,24.86664 9.57826,9.42575 -7.38311,26.98587 -16.92575,17.22528 -8.40927,-10.1894 -8.36503,-24.01259 -11.62234,-36.20713 -0.14575,-2.70872 1.85954,-6.21735 4.93186,-5.88479 z m 101.57458,7.60496 c 13.67889,-5.91397 31.37594,10.45044 23.92877,24.30448 -5.31824,11.28363 -26.06007,7.5016 -25.37083,-5.56835 -0.0354,-6.25215 -0.5401,-12.66436 1.44206,-18.73613 z m -49.41721,8.85497 c 13.71607,-3.14465 26.30028,14.63563 18.67811,26.49969 -13.67453,1.21572 -20.77377,-15.01329 -18.67811,-26.49969 z" id="path8" style="fill:url(#linearGradient4148);fill-opacity:1" inkscape:connector-curvature="0"/>
</svg>