<svg xmlns:cc="http://creativecommons.org/ns#" xmlns:dc="http://purl.org/dc/elements/1.1/" xmlns:rdf="http://www.w3.org/1999/02/22-rdf-syntax-ns#" version="1.1" viewBox="0 0 788.16 800" xmlns:xlink="http://www.w3.org/1999/xlink" xmlns="http://www.w3.org/2000/svg">
	<script/>
	<metadata>
		<rdf:RDF>
			<cc:Work rdf:about="">
				<dc:format>image/svg+xml</dc:format>
				<dc:type rdf:resource="http://purl.org/dc/dcmitype/StillImage"/>
				<dc:title/>
			</cc:Work>
		</rdf:RDF>
	</metadata>
	<path d="m378.04 0c-17.189 36.196-49.561 61.495-80.501 85.435-5.0902 4.4455-17.746 13.055-8.5646 19.607 7.8658-8.7908 29.454 2.8505 16.907 12.303-11.239 10.52-26.714 14.371-39.192 23.052-11.052 6.0043-22.261 12.274-31.025 21.466-0.59698 14.358 17.815 6.4101 25.287 12.392 9.7299 10.402-4.1256 27.938-16.895 23.927-16.327 0.50032-27.604 14.866-33.778 28.572-12.772 19.75-36.973 25.598-56.24 36.837-11.025 6.4266-21.721 13.537-31.984 21.036-13.232 9.047-1.7203 26.959 12.359 22.562 15.198-1.5152 28.871-13.456 44.605-10.015 14.269 5.0136 18.274 23.662 13.411 36.682-3.6006 10.425-12.329 17.767-19.322 25.911-11.352 11.501-26.199 18.968-41.854 22.528-15.13 5.0799-28.728 14.349-38.653 26.861-11.519 11.596-22.991 23.379-36.23 33.048-4.182 10.671 7.6201 19.761 17.46 19.478 20.732-1.3055 35.101-18.274 52.759-26.994 14.653-6.5855 31.897 9.2072 28.313 24.472-1.1339 14.851-15.039 22.387-27.401 26.956-36.344 18.27-67.899 44.764-95.918 73.997-5.7949 11.82-21.726 8.3406-30.304 16.581-5.5885 10.428 8.4366 15.926 16.804 14.854 35.956-4.3247 69.508-19.523 101.29-36.244 11.82-5.6514 22.92-13.089 35.208-17.593 11.543-2.8516 27.639 2.1662 29.704 15.304-0.0163 13.868-13.756 21.55-24.637 26.968-33.555 17.629-70.379 27.375-106.24 39.029-13.426-3.7536-23.541 20.133-8.8123 24.428 15.574 5.3407 32.132 1.0588 48.063 0.35879 49.261-7.5471 92.345-34.203 138.39-51.434 19.144-6.2401 41.74 2.4681 51.188 20.406 9.4917 15.989 8.6242 37.015-1.3885 52.55-15.824 33.854-39.88 64.967-72.174 84.432-20.271 10.036-43.933 13.875-61.307 29.24-16.068 5.2965 8.0552 27.009 11.542 9.7762 9.6552-13.169 26.684-17.105 42.131-17.649 23.215-2.5271 47.868-6.8092 65.906-22.88 16.171-12.558 32.107-29.881 54.066-30.152 12.136 1.4391 24.138 11.19 36.464 5.2403 10.782-4.9352 27.699-2.0432 30.516 11.216 5.1488 15.51 21.136 22.568 33.814 30.868 4.589 6.4442 19.838 23.064 23.354 8.4112-2.8375-10.451 1.2168-26.443 14.926-22.951 11.975 0.53468 23.387 4.9502 35.339 5.6744 15.916 3.2968 29.193 14.193 38.231 27.35 6.2174 8.586 19.836 23.339 29.955 11.953 6.2792-11.775-5.7069-21.595-15.464-25.799-14.229-8.8176-26.394-20.56-38.835-31.679-18.336-17.125-34.173-38.906-37.084-64.489-3.9456-25.508-1.8692-51.525 1.4598-76.964 4.1897-16.378 25.133-25.319 39.777-16.617 20.606 9.402 41.069 22.855 64.693 21.396 34.136 0.73552 69.214-5.8005 102.57 4.0916 32.463 10.226 55.673 37.622 87.296 49.476 7.079 4.3021 16.135 0.20786 18.729-7.3531 3.134-6.7943 0.9227-15.487-5.6238-19.359-36.649-36.994-86.736-54.965-129.14-83.873-13.35-3.3902-15.781-24.869-3.4396-31.07 16.226-11.792 39.183-6.3026 53.578 5.8551 12.157 7.121 25.852 12.456 40.115 12.469 14.61-4.5734 7.5267-25.714-5.5543-27.304-23.701-13.383-40.676-35.343-61.211-52.746-11.822-10.01-24.762-20.145-40.651-22.088-8.6846-1.5815-17.569-1.9276-26.368-1.337-8.2526-8.9685 2.7461-22.701 13.417-21.578 10.95 0.73758 21.837 1.5515 32.773 0.0277 12.221-0.89534 24.431-2.1604 36.696-2.2443 9.8998 6.7419 29.683-4.9042 20.748-16.528-9.7603-8.5526-23.874-7.8097-35.538-12.199-20.49-6.7224-41.342-12.155-62.455-16.417-14.771-0.88076-12.949-20.321 0.0334-22.465 8.4963-3.1694 15.881 3.3582 24.037 4.3701 13.929 2.9932 28.31 2.9548 42.232 5.9894 11.804-5.8271 2.6791-23.073-7.999-24.078-25.195-9.0093-46.969-25.27-68.255-41.088-23.501-17.674-44.823-38.114-68.612-55.38-8.6317-5.3491-22.78-6.8896-25.05-18.744-0.80081-10.905 12.036-15.872 21.135-13.322 12.91 3.8126 24.941 10.452 38.099 13.711 10.323 1.7544 20.968 4.8091 30.918 3.5082 12.631-7.9362-5.4174-13.009-11.95-15.762-16.841-9.0826-31.804-21.184-46.96-32.724-12.807-10.932 10.863-15.762 19.005-11.553 13.613 5.6952 15.165-14.142 4.9887-19.134-11.99-5.0983-22.301-13.562-33.173-20.942-19.644-13.984-41.893-25.053-66.041-28.128-27.074-2.7205-52.345-18.29-66.708-41.443-8.9069-13.194-15.443-27.786-21.762-42.341zm-88.913 151.89c13.954 0.41399 11.809 25.563-1.9292 23.885-13.342-0.8586-12.525-26.586 1.9292-23.885zm131.62 13.543c13.578-2.4289 16.454 22.349 2.8876 23.513-14.135 2.5301-19.373-25.081-2.8876-23.513zm-38.551 3.2295c13.765 2.708 11.317 26.688-2.5755 26.898-10.164 2.2632-21.119 9.2002-31.402 4.0012-8.3622-8.8441 3.7242-21.922 13.059-24.797 7.1597-1.4432 13.747-4.694 20.919-6.1021zm88.724 0.1042c13.265 4.8392 8.5868 28.257-5.4056 27.959-13.232 1.773-19.394-20.301-7.0551-25.536 3.9944-1.4163 8.1792-2.6097 12.461-2.4226zm-149.67 26.565c9.7545 9.2828 3.9931 27.197-8.0343 31.48-8.6695 4.8225-20.489 16.23-29.932 6.8438-5.1235-11.465 7.7368-20.098 15.301-26.462 6.751-5.2493 14.201-10.014 22.665-11.862zm111.4 51.776c13.966 6.5943 6.8764 31.763-8.4515 30.198-12.589-3.1899-10.945-24.781 1.735-26.503 2.3969-0.91738 4.5955-2.2678 6.7165-3.695zm-44.315 2.5002c13.062 6.1152 3.0887 27.912-10.067 24.771-13.64-1.6019-13.389-25.583 1.654-23.419 2.8345-0.14059 5.7618-0.21269 8.4132-1.3529zm95.527 12.501c14.316-4.4424 31.551 10.307 26.905 25.263-6.3766 11.595-22.156 13.063-33.458 8.7296-12.978-0.64065-21.707-20.15-10.145-28.412 4.7841-3.6134 10.815-5.0983 16.698-5.5809zm-211.46 3.7503c11.837-6.4399 24.405 12.916 14.338 21.453-6.668 9.8032-23.791 13.808-31.34 2.9066-6.2723-10.648 3.8691-28.537 17.002-24.359zm-54.614 9.1677c13.427 1.837 22.177 14.033 27.139 25.646 1.2114 14.152-19.671 21.918-28.78 11.621-10.243-6.4263-19.21-19.642-13.84-31.908 3.3087-4.8706 9.9002-6.8801 15.481-5.3586zm326.74 51.151c14.573-3.8403 25.152 19.449 12.64 27.874-11.441 10.392-33.687-3.3756-27.72-18.203 2.9654-5.497 8.8972-9.1504 15.08-9.6709zm-185.48 26.565c12.219 1.5561 8.2603 22.734-3.0381 22.023-12.126-2.2477-9.3498-23.217 3.0381-22.023zm-61.984 11.251c9.9664-7.0517 22.82 10.16 14.53 18.18-9.9364 6.9979-22.825-9.9404-14.53-18.18zm98.551 2.0836c11.552 7.0192 18.41 20.107 19.846 33.314-5.5362 12.339-26.917 9.3642-29.327-3.7753-4.2275-10.392-0.33141-23.761 9.481-29.539zm34.394 20.419c14.887-3.7395 9.5446 27.377-2.8853 16.584-4.1307-4.9052-1.9184-12.976 2.8853-16.584zm-216 21.669c9.8576-2.8873 24.227 0.14754 26.948 11.461 1.1494 10.632-10.543 16.164-19.11 18.799-13.732 4.2371-27.162 11.193-41.928 10.259-11.068-6.3261-15.041-19.272-18.987-30.563 10.682-10.015 26.411-7.0772 39.653-9.584 4.4716-0.22922 8.9486-0.33826 13.426-0.37199zm335.05 48.755c12.575-6.165 26.097 13.794 15.572 23.117-13.168 15.156-38.52 17.972-54.265 5.2399-1.8928-13.413 11.505-23.154 23.406-25.079 5.0063-1.4142 9.9818-3.5271 15.287-3.2777zm70.677 15.314c14.287-2.4589 25.541 17.923 15.338 28.472-9.6562 14.56-32.684 18.379-45.85 6.4437-5.1333-12.071 5.2799-24.649 16.363-28.521 4.7635-2.0273 9.2738-4.6256 14.149-6.394zm-355.37 21.669c13.231-1.3057 25.353 11.822 23.616 24.867 9.5783 9.4258-7.3831 26.986-16.926 17.225-8.4093-10.189-8.365-24.013-11.622-36.207-0.14575-2.7087 1.8595-6.2174 4.9319-5.8848zm101.57 7.605c13.679-5.914 31.376 10.45 23.929 24.304-5.3182 11.284-26.06 7.5016-25.371-5.5684-0.0354-6.2522-0.5401-12.664 1.4421-18.736zm-49.417 8.855c13.716-3.1446 26.3 14.636 18.678 26.5-13.675 1.2157-20.774-15.013-18.678-26.5z" />
</svg>
